<svg id="_0210_creative_process" xmlns="http://www.w3.org/2000/svg" viewBox="0 0 500 500" data-imageid="creative-process-16" imageName="Creative Process" class="illustrations_image" style="width: 144px;"><defs><style>.cls-1_creative-process-16{fill:#fff;}.cls-2_creative-process-16{fill:#f4a28c;}.cls-3_creative-process-16{opacity:.46;}.cls-3_creative-process-16,.cls-4_creative-process-16,.cls-5_creative-process-16,.cls-6_creative-process-16,.cls-7_creative-process-16,.cls-8_creative-process-16,.cls-9_creative-process-16,.cls-10_creative-process-16{fill:none;}.cls-4_creative-process-16{opacity:.58;}.cls-11_creative-process-16{fill:#ce8172;}.cls-12_creative-process-16{fill:#e6e6e6;}.cls-5_creative-process-16{opacity:.03;}.cls-6_creative-process-16{opacity:.73;}.cls-7_creative-process-16{opacity:.08;}.cls-8_creative-process-16{opacity:.75;}.cls-9_creative-process-16{opacity:.31;}.cls-10_creative-process-16{opacity:.3;}.cls-13_creative-process-16{fill:#24285b;}.cls-14_creative-process-16{fill:#000001;}.cls-15_creative-process-16{fill:#ffd200;}.cls-16_creative-process-16{fill:#68e1fd;}</style></defs><g id="bg_creative-process-16"><g class="cls-5_creative-process-16"><ellipse class="cls-14_creative-process-16" cx="250" cy="435.52" rx="224.66" ry="28.1"/></g><g class="cls-10_creative-process-16"><path class="cls-12_creative-process-16" d="m109.81,85.06c-39.32,18.93-57.19,68.31-60.99,121.89-3.2,45.15,11.81,118.03,81.67,129.52,135.95,22.36,279.46,25.89,308.85-49.65,29.39-75.55,25.18-193.03-72.37-232.26-50.9-20.47-180.36-6.47-257.16,30.5Z"/></g></g><g id="plant_creative-process-16"><g class="cls-4_creative-process-16"><path class="cls-16_creative-process-16 targetColor" d="m77.38,411.99s-21.27-5.81-25.9-25.61c0,0,32.96-6.66,33.89,27.36l-8-1.75Z" style="fill: rgb(104, 225, 253);"/></g><g class="cls-6_creative-process-16"><path class="cls-16_creative-process-16 targetColor" d="m79.99,409.88s-14.86-23.49-1.78-45.46c0,0,25.06,15.91,13.92,45.51l-12.14-.05Z" style="fill: rgb(104, 225, 253);"/></g><path class="cls-16_creative-process-16 targetColor" d="m83.82,409.9s7.85-24.81,31.59-29.51c0,0,4.45,16.11-15.37,29.58l-16.22-.07Z" style="fill: rgb(104, 225, 253);"/><polygon class="cls-13_creative-process-16" points="68.39 409.34 72.7 438.84 99.86 438.95 103.86 409.49 68.39 409.34"/></g><g id="lamp_creative-process-16"><circle class="cls-15_creative-process-16" cx="444.27" cy="57.97" r="34.75"/><g class="cls-3_creative-process-16"><circle class="cls-1_creative-process-16" cx="452.09" cy="52.8" r="17.75"/></g><g class="cls-3_creative-process-16"><circle class="cls-1_creative-process-16" cx="458.06" cy="50.21" r="9.71"/></g><rect class="cls-13_creative-process-16" x="424.01" y="86.03" width="40.5" height="31.62"/><rect class="cls-13_creative-process-16" x="434.34" y="117.64" width="19.42" height="12.68"/><g class="cls-8_creative-process-16"><rect class="cls-1_creative-process-16" x="434.34" y="117.64" width="19.42" height="12.68"/></g></g><g id="person_creative-process-16"><path class="cls-16_creative-process-16 targetColor" d="m283.94,139.82s38.03,30.13,45.33,85.63c7.3,55.5,77.86,13.79,98.13-47.04l19.46,12.98s-29.93,103.59-117.6,107.86c-87.67,4.28-119.04-136.39-45.33-159.43Z" style="fill: rgb(104, 225, 253);"/><g class="cls-3_creative-process-16"><path class="cls-1_creative-process-16" d="m283.94,139.82s38.03,30.13,45.33,85.63c7.3,55.5,77.86,13.79,98.13-47.04l19.46,12.98s-29.93,103.59-117.6,107.86c-87.67,4.28-119.04-136.39-45.33-159.43Z"/></g><path class="cls-2_creative-process-16" d="m254.33,62.49s5.89,10.97,7.22,19.37c.54,3.41-1.82,6.66-5.23,7.15-4.24.61-10.15.21-14.02-5.28l-7.71-8.52s-4.64-5.51-.19-12.91c4.45-7.41,16.68-6.67,19.93.2Z"/><polygon class="cls-2_creative-process-16" points="240.32 76.79 230.54 116.39 252.75 120.22 250.99 90.63 240.32 76.79"/><path class="cls-2_creative-process-16" d="m257.68,69.59l5.08,3.04c1.25.75,1.3,2.55.09,3.37l-4.02,2.7-1.15-9.1Z"/><g class="cls-9_creative-process-16"><path class="cls-11_creative-process-16" d="m251.11,89.06s-8.15-1.75-10.86-4.31c0,0,.77,18.55,11.64,20.96l-.78-16.65Z"/></g><path class="cls-2_creative-process-16" d="m236.68,73.06s-6.68-2.16-7.82,3.03c-1.14,5.18,6.28,7.38,10.1,3.51,0,0-2.41-2.62-2.29-6.54Z"/><rect class="cls-12_creative-process-16" x="145.75" y="338.81" width="144.23" height="103.07" transform="translate(435.72 780.69) rotate(-180)"/><g class="cls-7_creative-process-16"><polygon class="cls-14_creative-process-16" points="251.9 441.88 258.84 351.14 287.77 355.54 289.84 383.08 289.98 441.88 251.9 441.88"/></g><path class="cls-16_creative-process-16 targetColor" d="m255.53,429.96s3.09,8.59,10.85,9.25c7.76.66,9.8,8.25,2.82,10.23-6.98,1.98-24.98-6.99-24.98-6.99l.5-11.2,10.81-1.28Z" style="fill: rgb(104, 225, 253);"/><path class="cls-16_creative-process-16 targetColor" d="m353.61,430.87s8.54,3.22,14.08-2.25c5.54-5.48,12.63-2.1,9.61,4.49-3.03,6.59-21.54,14.47-21.54,14.47l-10.1-9.43,7.95-7.28Z" style="fill: rgb(104, 225, 253);"/><path class="cls-16_creative-process-16 targetColor" d="m254.64,119.77l-22.21-3.83s-73.87.11-86.8,25.41c-12.93,25.29-10.21,119.46,32.51,196.75l87.49,2.53s-4.85-56.77,11.45-87.69c16.3-30.92,66.97-96.6-22.44-133.18Z" style="fill: rgb(104, 225, 253);"/><path class="cls-13_creative-process-16" d="m178.15,338.1l42.79-6.45c26.47-3.99,49.59,18.06,46.85,44.69l-5.59,54.36h-21s1.82-50.9,1.82-50.9c.43-12.14-10.32-21.67-22.3-19.74-18.21,2.94-40.78,1.67-42.58-21.97Z"/><g class="cls-7_creative-process-16"><path class="cls-14_creative-process-16" d="m185.65,150.42s24.25,21.26,19.38,44.73c-.79,3.79-1.61,8.38-2.43,13.41-6.43,39.4,5.17,79.62,31.45,109.67l15.28,17.47-71.18,2.39-6.09-11.92-33.23-55.23,46.83-120.52Z"/></g><path class="cls-16_creative-process-16 targetColor" d="m144.4,143.68c-16.2,22.81-30.61,73.18-18.1,144.15,3.81,21.6,22.01,37.74,43.9,39.13l66.85,4.22v-21.8s-50.8-7.34-50.8-7.34c-11.82-1.71-19.32-13.54-15.85-24.97,8.95-29.46,22.81-82.84,19.23-120.89-2.18-23.11-31.79-31.43-45.23-12.5Z" style="fill: rgb(104, 225, 253);"/><g class="cls-3_creative-process-16"><path class="cls-1_creative-process-16" d="m144.4,143.68c-16.2,22.81-30.61,73.18-18.1,144.15,3.81,21.6,22.01,37.74,43.9,39.13l66.85,4.22v-21.8s-50.8-7.34-50.8-7.34c-11.82-1.71-19.32-13.54-15.85-24.97,8.95-29.46,22.81-82.84,19.23-120.89-2.18-23.11-31.79-31.43-45.23-12.5Z"/></g><path class="cls-2_creative-process-16" d="m237.05,314.66s27.13-.69,23.27,13.46c-3.87,14.15-23.27,3.06-23.27,3.06v-16.52Z"/><polygon class="cls-15_creative-process-16" points="327.31 336.27 338.27 274.36 260.6 274.36 253.86 327.13 218.25 327.63 218.25 336.27 327.31 336.27"/><circle class="cls-1_creative-process-16" cx="296.39" cy="304.04" r="7.78"/><path class="cls-13_creative-process-16" d="m238.26,89.22s-21.13-5.59-14.44-19.63c0,0-7.48-11.92,4.93-18,7.31-3.58,18.14-5.48,25.81-6.43,4.63-.58,7.89,4.46,5.47,8.46-3.24,5.36-9.17,11.38-19.78,13.14,0,0,4.85,10.53-1.99,22.47Z"/><path class="cls-2_creative-process-16" d="m243.49,75.64s-1.98-4.37-5.14-2.61c-3.16,1.76-.34,8.09,4.41,6.75l.73-4.14Z"/><path class="cls-2_creative-process-16" d="m430.49,180.47s8.27-28.42,14.35-28.82c6.08-.41,0,16.22,0,16.22,0,0,22.3,5.68,2.03,23.52l-16.38-10.92Z"/><path class="cls-13_creative-process-16" d="m288.94,335.31l68.15,92.23-13.25,12.3s-59.28-69.22-91.08-88.71l-11.1-14.87,47.29-.96Z"/></g></svg>